# xmcd CD database file
#
# Track frame offsets:
#	150
#	17927
#	36114
#	51158
#	67243
#	79624
#	104772
#	127161
#	145445
#	173143
#	189157
#	208013
#
# Disc length: 3025 seconds
#
# Revision: 0
# Processed by: cddbd v1.4PL0 Copyright (c) Steve Scherf et al.
# Submitted via: CDex 1.40Release
#
DISCID=b50bcf0c
DTITLE=Mad Anthony Wayne - nothing one good slap won't cure
DYEAR=1996
DGENRE=Blues
TTITLE0=nothing one good slap won't cure
TTITLE1=blue out in the streets
TTITLE2=temporary brush with sanity
TTITLE3=chessboard across the schoolyard
TTITLE4=foursquare
TTITLE5=lord, if you pick 'em up
TTITLE6=civil unrest
TTITLE7=no autopsy, no foul
TTITLE8=concrete communion
TTITLE9=nobody writing good drug songs anymore
TTITLE10=dawn's early light
TTITLE11=mrs. lincoln
EXTD=YEAR: 1996 ID3G: 0
EXTT0=
EXTT1=
EXTT2=
EXTT3=
EXTT4=
EXTT5=
EXTT6=
EXTT7=
EXTT8=
EXTT9=
EXTT10=
EXTT11=
PLAYORDER=
